<?xml version="1.0" encoding="utf-8"?>
<!-- Svg Vector Icons : http://www.onlinewebfonts.com/icon -->
<!DOCTYPE svg PUBLIC "-//W3C//DTD SVG 1.1//EN" "http://www.w3.org/Graphics/SVG/1.1/DTD/svg11.dtd">
<svg version="1.1" xmlns="http://www.w3.org/2000/svg" xmlns:xlink="http://www.w3.org/1999/xlink" x="0px" y="0px" viewBox="0 0 1000 1000" enable-background="new 0 0 1000 1000" xml:space="preserve">
<metadata> Svg Vector Icons : http://www.onlinewebfonts.com/icon </metadata>
<g><path d="M500,10C229.4,10,10,229.4,10,500s219.4,490,490,490s490-219.4,490-490S770.6,10,500,10L500,10z M776,530.6H530.6V776c0,16.7-13.8,30.3-30.6,30.3c-16.9,0-30.6-13.5-30.6-30.3V530.6H224c-16.7,0-30.3-13.8-30.3-30.6c0-16.9,13.5-30.6,30.3-30.6h245.4V223.9c0-16.6,13.8-30.1,30.6-30.1c16.9,0,30.6,13.5,30.6,30.1v245.5H776c16.7,0,30.3,13.8,30.3,30.6C806.3,516.9,792.7,530.6,776,530.6L776,530.6z"/></g>
</svg>